<mxfile host="app.diagrams.net" agent="Mozilla/5.0 (Windows NT 10.0; Win64; x64) AppleWebKit/537.36 (KHTML, like Gecko) Chrome/133.0.0.0 Safari/537.36 Edg/133.0.0.0" version="26.0.14">
  <diagram name="Page-1" id="JIteSfPyZ_0T1WRYHiIJ">
    <mxGraphModel dx="1050" dy="611" grid="1" gridSize="10" guides="1" tooltips="1" connect="1" arrows="1" fold="1" page="1" pageScale="1" pageWidth="2336" pageHeight="1654" math="0" shadow="0">
      <root>
        <mxCell id="0" />
        <mxCell id="1" parent="0" />
        <mxCell id="1-vy-4LVXqRcQbgJfH0z-5" style="edgeStyle=orthogonalEdgeStyle;rounded=0;orthogonalLoop=1;jettySize=auto;html=1;entryX=0.5;entryY=0;entryDx=0;entryDy=0;" edge="1" parent="1" source="1-vy-4LVXqRcQbgJfH0z-1" target="1-vy-4LVXqRcQbgJfH0z-4">
          <mxGeometry relative="1" as="geometry" />
        </mxCell>
        <mxCell id="1-vy-4LVXqRcQbgJfH0z-9" value="What is the IaC" style="edgeLabel;html=1;align=center;verticalAlign=middle;resizable=0;points=[];" vertex="1" connectable="0" parent="1-vy-4LVXqRcQbgJfH0z-5">
          <mxGeometry x="-0.0926" y="4" relative="1" as="geometry">
            <mxPoint as="offset" />
          </mxGeometry>
        </mxCell>
        <mxCell id="1-vy-4LVXqRcQbgJfH0z-1" value="User input from browser" style="rounded=0;whiteSpace=wrap;html=1;" vertex="1" parent="1">
          <mxGeometry x="20" y="70" width="190" height="90" as="geometry" />
        </mxCell>
        <mxCell id="1-vy-4LVXqRcQbgJfH0z-7" style="rounded=0;orthogonalLoop=1;jettySize=auto;html=1;entryX=1;entryY=0;entryDx=0;entryDy=0;" edge="1" parent="1" source="1-vy-4LVXqRcQbgJfH0z-4" target="1-vy-4LVXqRcQbgJfH0z-6">
          <mxGeometry relative="1" as="geometry">
            <mxPoint x="370" y="280" as="targetPoint" />
          </mxGeometry>
        </mxCell>
        <mxCell id="1-vy-4LVXqRcQbgJfH0z-8" value="Terraform" style="edgeLabel;html=1;align=center;verticalAlign=middle;resizable=0;points=[];" vertex="1" connectable="0" parent="1-vy-4LVXqRcQbgJfH0z-7">
          <mxGeometry x="0.0881" relative="1" as="geometry">
            <mxPoint as="offset" />
          </mxGeometry>
        </mxCell>
        <mxCell id="1-vy-4LVXqRcQbgJfH0z-12" value="" style="edgeStyle=orthogonalEdgeStyle;rounded=0;orthogonalLoop=1;jettySize=auto;html=1;" edge="1" parent="1" source="1-vy-4LVXqRcQbgJfH0z-4" target="1-vy-4LVXqRcQbgJfH0z-10">
          <mxGeometry relative="1" as="geometry" />
        </mxCell>
        <mxCell id="1-vy-4LVXqRcQbgJfH0z-4" value="If" style="rhombus;whiteSpace=wrap;html=1;" vertex="1" parent="1">
          <mxGeometry x="500" y="150" width="80" height="80" as="geometry" />
        </mxCell>
        <mxCell id="1-vy-4LVXqRcQbgJfH0z-6" value="List all the resoure" style="rounded=0;whiteSpace=wrap;html=1;" vertex="1" parent="1">
          <mxGeometry x="270" y="250" width="120" height="60" as="geometry" />
        </mxCell>
        <mxCell id="1-vy-4LVXqRcQbgJfH0z-10" value="" style="rounded=0;whiteSpace=wrap;html=1;" vertex="1" parent="1">
          <mxGeometry x="480" y="250" width="120" height="60" as="geometry" />
        </mxCell>
        <mxCell id="1-vy-4LVXqRcQbgJfH0z-11" value="i" style="rounded=0;whiteSpace=wrap;html=1;" vertex="1" parent="1">
          <mxGeometry x="690" y="250" width="120" height="60" as="geometry" />
        </mxCell>
        <mxCell id="1-vy-4LVXqRcQbgJfH0z-13" style="rounded=0;orthogonalLoop=1;jettySize=auto;html=1;entryX=0;entryY=0;entryDx=0;entryDy=0;" edge="1" parent="1" source="1-vy-4LVXqRcQbgJfH0z-4" target="1-vy-4LVXqRcQbgJfH0z-11">
          <mxGeometry relative="1" as="geometry" />
        </mxCell>
      </root>
    </mxGraphModel>
  </diagram>
</mxfile>
